<svg id="图层_1" data-name="图层 1" xmlns="http://www.w3.org/2000/svg" viewBox="0 0 32 32"><defs><style>.cls-1{fill:#4bd0ef;}.cls-2{fill:#347df6;}</style></defs><path class="cls-1" d="M28,16.91H18a1.1,1.1,0,0,0-1.1,1.1V28a1.1,1.1,0,0,0,1.1,1.1H28a1.1,1.1,0,0,0,1.1-1.1V18A1.1,1.1,0,0,0,28,16.91Zm-1.1,10h-7.8v-7.8h7.8Z"/><path class="cls-2" d="M14,2.91H4A1.11,1.11,0,0,0,2.87,4V14A1.11,1.11,0,0,0,4,15.11H14a1.1,1.1,0,0,0,1.1-1.1V4A1.1,1.1,0,0,0,14,2.91Zm-1.11,10H5.08V5.11h7.79Zm1.11,4H4A1.11,1.11,0,0,0,2.87,18V28A1.11,1.11,0,0,0,4,29.11H14a1.1,1.1,0,0,0,1.1-1.1V18A1.1,1.1,0,0,0,14,16.91Zm-1.11,10H5.08v-7.8h7.79ZM28,2.91H18A1.1,1.1,0,0,0,16.87,4V14a1.1,1.1,0,0,0,1.1,1.1H28a1.1,1.1,0,0,0,1.1-1.1V4A1.1,1.1,0,0,0,28,2.91Zm-1.1,10h-7.8V5.11h7.8Z"/></svg>