<?xml version="1.0" encoding="UTF-8"?>
<svg width="102px" height="92px" viewBox="0 0 102 92" version="1.1" xmlns="http://www.w3.org/2000/svg" xmlns:xlink="http://www.w3.org/1999/xlink">
    <title>logo</title>
    <defs>
        <linearGradient x1="3.72331247%" y1="60.9753929%" x2="117.079489%" y2="23.7294125%" id="linearGradient-1">
            <stop stop-color="#00E5CC" offset="0%"></stop>
            <stop stop-color="#23A5F8" offset="100%"></stop>
        </linearGradient>
        <linearGradient x1="-4.08371115%" y1="17.584842%" x2="74.0970512%" y2="85.3506272%" id="linearGradient-2">
            <stop stop-color="#23A5F8" offset="0%"></stop>
            <stop stop-color="#00E8C7" offset="34%"></stop>
            <stop stop-color="#00E8C7" offset="66%"></stop>
            <stop stop-color="#23A5F8" offset="100%"></stop>
        </linearGradient>
    </defs>
    <g id="app" stroke="none" stroke-width="1" fill="none" fill-rule="evenodd">
        <g id="app登录" transform="translate(-324.000000, -177.000000)">
            <g id="logo" transform="translate(324.000000, 177.000000)">
                <rect id="矩形" stroke="#979797" fill="#D8D8D8" opacity="0" x="0.5" y="0.5" width="101" height="91"></rect>
                <g id="资源-5" transform="translate(4.000000, 3.000000)" fill-rule="nonzero">
                    <path d="M76.2222428,2.7958036 C62.9043903,-3.29987041 42.2430489,0.546111152 31.6966374,14.5901471 L31.6219578,14.6976691 C19.8391849,30.701915 21.7310667,50.0558868 27.8215987,61.5111222 C29.0144652,63.76807 30.4531157,65.8871785 32.1115237,67.8301112 C34.5905007,69.6413506 37.5274443,70.7269735 40.5918012,70.964793 C41.8736584,71.0509904 43.1612906,70.9787603 44.4253513,70.7497489 C44.0866315,70.2147682 43.7153021,69.7010055 43.3134558,69.2113562 C42.8321876,68.6158494 42.483683,68.1857612 42.392408,68.1113228 C40.2163907,65.4342451 38.2416928,62.6006382 36.4844261,59.6336215 C33.8418263,54.3977202 32.4771506,48.6137468 32.5015169,42.7526572 C32.5015169,29.0394585 40.6166944,14.7390238 51.7522446,9.97496919 C54.3399743,8.90157742 57.0710753,8.21055848 59.8591243,7.92377902 C62.4314198,7.6839221 68.4721654,7.32827219 73.8573905,10.4050574 C81.4332156,14.7638366 83.4661589,22.9024298 83.4661589,22.9024298 L68.4472722,22.9024298 C68.4472722,22.9024298 65.5513653,14.6976691 53.5694469,14.5487924 C53.3551172,14.5454514 53.1653301,14.6862048 53.1069562,14.8917932 C53.0485823,15.0973816 53.136218,15.3163973 53.3205151,15.4255108 C55.9508947,16.9390906 60.7469811,20.8181559 62.273763,29.6018816 L95,29.6018816 C95,29.6018816 95,11.372756 76.2222428,2.7958036 Z" id="路径" fill="url(#linearGradient-1)"></path>
                    <path d="M63.3103989,54.8596032 C61.9985913,58.2481757 60.2215096,61.4381397 58.0301824,64.3378959 C55.7260045,67.6566989 52.7752043,70.4771124 49.354355,72.6303654 C48.731688,73.0035265 40.7532477,77.5477998 31.7868423,75.5493146 C16.3031887,72.1079398 11.3633635,52.1645506 10.7074875,49.5275453 C10.0184027,46.7246906 7.5775479,35.5381493 12.6751154,24.0862489 C12.8660666,23.646748 13.3143869,22.6599441 13.9702628,21.474121 C21.1350849,8.37201918 35.1990577,2.81606461 38.4950419,1 L35.3401956,1 C29.8928297,0.994877236 24.5404886,2.4250673 19.823333,5.14624854 L19.7071018,5.2125883 C17.2370466,6.65040044 14.9367115,8.36110667 12.8494622,10.312457 C8.59044726,14.3754975 5.29193496,19.3358645 3.19397195,24.8325711 C1.93188346,27.9371117 1.02937983,31.1756288 0.504050349,34.4850057 C-0.197365715,39.1937216 -0.166561205,43.9823888 0.595374848,48.6817134 C1.10373638,54.0219917 2.58660389,59.2241962 4.97064857,64.0310745 C5.98466369,65.9930798 7.159275,67.8680302 8.48249066,69.6367839 C10.7822076,72.6303654 17.1251091,81.155024 28.5655782,84.0325109 C33.2191221,85.20567 38.0779152,85.3133903 42.7789911,84.3476248 C47.8484612,83.2631696 52.5867434,80.9891933 56.6021993,77.7136492 C58.760162,76.0579429 60.7261494,74.1665829 62.4635717,72.0747699 C64.3476919,69.6584165 66.0832794,67.1300955 67.6607659,64.5037453 C68.4411753,63.2847522 69.0638423,62.273071 69.4789537,61.5930885 L83.4349976,61.5930885 C82.5793254,64.9129373 81.206543,68.0778192 79.3669062,70.9718715 C73.5553472,80.1433428 64.630453,83.733982 61.1020065,84.9446826 L65.0704711,84.9446826 C66.5977897,84.9427829 68.113711,84.6820144 69.5536737,84.1734829 C70.6495677,83.7837369 71.8782973,83.3027736 73.1900492,82.6891309 C78.4679425,80.1430265 83.1518128,76.5184234 86.9385374,72.0498925 C89.7034525,69.060189 91.875515,65.5737785 93.3395546,61.7755228 C94.1676083,59.5418794 94.7250539,57.2172793 95,54.8513108 L63.3103989,54.8596032 Z" id="路径" fill="url(#linearGradient-2)"></path>
                </g>
            </g>
        </g>
    </g>
</svg>