<?xml version="1.0" encoding="UTF-8"?>
<svg width="135px" height="21px" viewBox="0 0 135 21" version="1.1" xmlns="http://www.w3.org/2000/svg" xmlns:xlink="http://www.w3.org/1999/xlink">
    <title>logo2</title>
    <defs>
        <filter color-interpolation-filters="auto" id="filter-1">
            <feColorMatrix in="SourceGraphic" type="matrix" values="0 0 0 0 0.007843 0 0 0 0 0.478431 0 0 0 0 1.000000 0 0 0 1.000000 0"></feColorMatrix>
        </filter>
        <polygon id="path-2" points="0 0 14.8703832 0 14.8703832 15.9289371 0 15.9289371"></polygon>
    </defs>
    <g id="app" stroke="none" stroke-width="1" fill="none" fill-rule="evenodd">
        <g id="logo2" transform="translate(-308.000000, -1250.000000)" filter="url(#filter-1)">
            <g transform="translate(308.000000, 1250.000000)">
                <path d="M16.0455288,0 C16.5765328,0 17.1468249,0.2655893 17.1468249,0.796184186 L17.1468249,1.32736279 C17.1468249,1.85854139 16.5765328,2.12413068 16.0455288,2.12413068 L5.31065382,2.12413068 C4.57400088,2.12413068 3.83796182,2.18542052 3.321077,2.59985657 C2.80419219,3.01370891 2.65563385,3.66046263 2.65563385,4.24767766 L2.65563385,11.9246677 C2.65563385,12.5118827 2.76613179,13.2047498 3.2830166,13.6191858 C3.79990142,14.0336219 4.57400088,14.0482147 5.31065382,14.0482147 L16.0455288,14.0482147 C16.5765328,14.0482147 17.1468249,14.313804 17.1468249,14.8443989 L17.1468249,15.3755775 C17.1468249,15.9061723 16.5765328,16.1723454 16.0455288,16.1723454 L5.31065382,16.1723454 C3.84471447,16.1723454 2.28730738,16.1028835 1.24985449,15.2740114 C0.212401598,14.4463068 0,13.0996815 0,11.9246677 L0,4.24767766 C0,3.0726639 0.212401598,1.84336485 1.24985449,1.01507647 C2.28730738,0.186788079 3.84471447,0 5.31065382,0 L16.0455288,0 Z" id="Fill-5" fill="#FFFFFF"></path>
                <path d="M24.7453386,16.1721119 C23.2793993,16.1721119 21.7035759,15.9578893 20.666123,15.1296009 C19.629284,14.3007288 19.4346848,13.099448 19.4346848,11.9244342 L19.4346848,6.15676857 C19.4346848,5.62617368 19.6998799,5.07047914 20.2308839,5.07047914 L21.2928918,5.07047914 C21.8245097,5.07047914 22.0897048,5.62617368 22.0897048,6.15676857 L22.0897048,11.9244342 C22.0897048,12.5116492 22.2843039,13.2173579 22.8011887,13.6312103 C23.3180736,14.0450626 24.0086857,14.0485649 24.7453386,14.0485649 L29.8399076,14.0485649 C30.8393001,14.0485649 31.6496183,13.2780641 31.6496183,12.3277797 L31.6496183,6.15676857 C31.6496183,5.62617368 31.9148134,5.07047914 32.4458174,5.07047914 L33.5084392,5.07047914 C34.0394432,5.07047914 34.3052522,5.62617368 34.3052522,6.15676857 L34.3052522,16.1721119 C34.3052522,17.3471256 34.0910089,18.9289872 33.053556,19.7572756 C32.0161031,20.5855639 30.7650209,21 29.2990815,21 L26.9092566,21 C26.3782526,21 26.1124437,20.7344107 26.1124437,20.2032321 L26.1124437,19.6726372 C26.1124437,19.1414586 26.3782526,18.8758693 26.9092566,18.8758693 L29.2990815,18.8758693 C30.0357345,18.8758693 30.6520674,18.8087423 31.1689523,18.39489 C31.4145032,18.1981788 31.6514599,17.7493037 31.6833816,17.352379 C31.7343334,16.7120462 31.6404101,16.1721119 31.1370306,16.1721119 L24.7453386,16.1721119 Z" id="Fill-7" fill="#FFFFFF"></path>
                <path d="M39.2589362,11.9244926 C39.2589362,12.5117076 39.5173786,13.0125331 40.0342635,13.4269692 C40.5511483,13.8414052 41.1779171,14.0486233 41.9145701,14.0486233 L46.1632159,14.0486233 C46.899255,14.0486233 47.5260239,13.8414052 48.0435225,13.4269692 C48.5597935,13.0125331 48.8188498,12.5117076 48.8188498,11.9244926 L48.8188498,8.73858842 C48.8188498,8.15078968 48.5597935,7.64996414 48.0435225,7.23552809 C47.5260239,6.82167576 46.899255,6.61445773 46.1632159,6.61445773 L41.0796968,6.61445773 C40.0741655,6.61445773 39.2589362,7.38962826 39.2589362,8.34574974 L39.2589362,11.9244926 Z M39.2589362,3.61125565 C39.2589362,4.09165124 39.6677786,4.48098764 40.1723859,4.48157135 L46.1632159,4.49091076 C47.6291553,4.49091076 48.5757543,4.9047631 49.6132072,5.73305148 C50.6500462,6.56133987 51.1687726,7.56299094 51.1687726,8.73858842 L51.1687726,11.9244926 C51.1687726,13.0995063 50.6500462,14.1011574 49.6132072,14.9294458 C48.5757543,15.7577342 47.6291553,16.1721702 46.1632159,16.1721702 L41.9145701,16.1721702 C40.4486307,16.1721702 39.1969346,15.7577342 38.1594817,14.9294458 C37.1220288,14.1011574 36.6033024,13.0995063 36.6033024,11.9244926 L36.6033024,2.10119077 C36.6033024,1.57001217 36.8691113,1.01490135 37.4001153,1.01490135 L38.4621233,1.01490135 C38.9931273,1.01490135 39.2589362,1.57001217 39.2589362,2.10119077 L39.2589362,3.61125565 Z" id="Fill-9" fill="#FFFFFF"></path>
                <path d="M58.7672863,6.61469122 C58.0306334,6.61469122 57.4038645,6.82132553 56.8869797,7.23576158 C56.3700949,7.65019763 56.1116525,8.15102317 56.1116525,8.7388219 C56.1116525,9.0318457 56.3621145,9.26941679 56.670281,9.26941679 L63.7734569,9.26941679 C64.2123793,9.26941679 64.5874584,9.14041627 64.8993082,8.88183152 C65.2105441,8.62324678 65.3664689,8.31037674 65.3664689,7.942054 C65.3664689,7.57431497 65.2105441,7.26086123 64.8993082,7.00227648 C64.5874584,6.74369173 64.2123793,6.61469122 63.7734569,6.61469122 L58.7672863,6.61469122 Z M63.7734569,4.49056053 C64.9484184,4.49056053 65.9508803,4.82677907 66.7790009,5.49921616 C67.6077355,6.17223695 68.0221028,6.98651624 68.0221028,7.942054 C68.0221028,8.89759177 67.6077355,9.71187105 66.7790009,10.3843081 C65.9508803,11.0573289 64.9484184,11.3935475 63.7734569,11.3935475 L56.670281,11.3935475 C56.3621145,11.3935475 56.1116525,11.6311186 56.1116525,11.9247261 C56.1116525,12.5119411 56.3700949,13.0127666 56.8869797,13.4272027 C57.4038645,13.841055 58.0306334,14.048273 58.7672863,14.048273 L67.6826285,14.048273 C68.2136325,14.048273 68.7845386,14.3138623 68.7845386,14.8444572 L68.7845386,15.3756358 C68.7845386,15.9062307 68.2136325,16.1724037 67.6826285,16.1724037 L58.7672863,16.1724037 C57.301347,16.1724037 56.0496509,15.7579677 55.0128118,14.9296793 C53.9747451,14.1013909 53.4566325,13.0997398 53.4566325,11.9247261 L53.4566325,8.7388219 C53.4566325,7.56322443 53.9747451,6.56157336 55.0128118,5.73328497 C56.0496509,4.90499658 57.301347,4.49056053 58.7672863,4.49056053 L63.7734569,4.49056053 Z" id="Fill-11" fill="#FFFFFF"></path>
                <path d="M71.0750995,9.31862377 C71.0750995,8.1430263 71.3464333,6.77480362 72.3838862,5.94651523 C73.4213391,5.11822685 74.9204278,5.07094611 76.3857533,5.07094611 L78.9284337,5.07094611 C79.4594377,5.07094611 80.0297299,5.3359517 80.0297299,5.8671303 L80.0297299,6.3983089 C80.0297299,6.92890379 79.4594377,7.19449309 78.9284337,7.19449309 L76.3857533,7.19449309 C75.6491004,7.19449309 75.0229454,7.40171111 74.5060606,7.81556345 C73.9891757,8.2299995 73.7307333,8.73082504 73.7307333,9.31862377 L73.7307333,15.3752272 C73.7307333,15.9064058 73.4649244,16.4621004 72.9339204,16.4621004 L71.8712985,16.4621004 C71.3409084,16.4621004 71.0750995,15.9064058 71.0750995,15.3752272 L71.0750995,9.31862377 Z" id="Fill-13" fill="#FFFFFF"></path>
                <path d="M83.842093,5.5529761 C83.842093,4.37737863 84.3608194,3.37572756 85.3982723,2.54743917 C86.4357252,1.71915078 87.6874213,1.30529844 89.1527468,1.30529844 L99.125186,1.30529844 C99.65619,1.30529844 100.227096,1.57030403 100.227096,2.10148263 L100.227096,2.63266123 C100.227096,3.16325612 99.65619,3.42884542 99.125186,3.42884542 L89.1527468,3.42884542 C88.4160939,3.42884542 87.7899389,3.63606344 87.2730541,4.04991578 C86.7561692,4.46435183 86.4977268,4.96517737 86.4977268,5.5529761 L86.4977268,6.25985224 C86.4977268,7.04261103 87.1643977,7.67710679 87.9876074,7.67710679 L97.7636058,7.67710679 C98.2946098,7.67710679 98.8649019,7.94211237 98.8649019,8.47329097 L98.8649019,9.00446957 C98.8649019,9.53506446 98.2946098,9.80065376 97.7636058,9.80065376 L86.4977268,9.80065376 L86.4977268,11.9247844 C86.4977268,12.5119995 86.7561692,13.012825 87.2730541,13.4272611 C87.7899389,13.8416971 88.4160939,14.0483314 89.1527468,14.0483314 L99.125186,14.0483314 C99.65619,14.0483314 100.227096,14.3139207 100.227096,14.8445156 L100.227096,15.3756942 C100.227096,15.9068728 99.65619,16.1724621 99.125186,16.1724621 L89.1527468,16.1724621 C87.6874213,16.1724621 86.4357252,15.7580261 85.3982723,14.9297377 C84.3608194,14.1014493 83.842093,13.0997982 83.842093,11.9247844 L83.842093,5.5529761 Z" id="Fill-15" fill="#FFFFFF"></path>
                <path d="M105.62756,15.3755191 C105.62756,15.9066977 105.361751,16.4623922 104.830747,16.4623922 L103.768739,16.4623922 C103.237735,16.4623922 102.971926,15.9066977 102.971926,15.3755191 L102.971926,9.31891563 C102.971926,8.14331816 103.490653,7.14166708 104.528106,6.3133787 C105.565558,5.48509031 106.816641,5.07065426 108.283194,5.07065426 L112.53184,5.07065426 C113.997165,5.07065426 115.248861,5.48509031 116.286314,6.3133787 C117.323767,7.14166708 117.842494,8.14331816 117.842494,9.31891563 L117.842494,15.3755191 C117.842494,15.9066977 117.576685,16.4623922 117.045681,16.4623922 L115.983673,16.4623922 C115.452669,16.4623922 115.18686,15.9066977 115.18686,15.3755191 L115.18686,9.31891563 C115.18686,8.73111689 115.189929,8.05225897 114.673044,7.63840663 C114.15616,7.22397058 113.267879,7.19478494 112.53184,7.19478494 L108.283194,7.19478494 C107.545927,7.19478494 106.669924,7.1696853 106.153039,7.58353763 C105.636154,7.99797368 105.62756,8.73111689 105.62756,9.31891563 L105.62756,15.3755191 Z" id="Fill-17" fill="#FFFFFF"></path>
                <g id="编组" transform="translate(120.129617, 5.070946)">
                    <mask id="mask-3" fill="white">
                        <use xlink:href="#path-2"></use>
                    </mask>
                    <g id="Clip-20"></g>
                    <path d="M2.65563385,7.43358183 C2.65563385,8.02079685 2.91407626,7.94199563 3.43096107,8.35643168 C3.94784588,8.77028402 4.57461476,8.97750204 5.3112677,8.97750204 L10.3775983,8.97750204 C11.3923377,8.97750204 12.2149335,8.48484848 12.2149335,7.51997131 L12.2149335,4.24767766 C12.2149335,3.65987892 11.9564911,3.15905338 11.4402202,2.74461733 C10.9227215,2.330765 10.2959526,2.12354697 9.55991353,2.12354697 L5.3112677,2.12354697 C4.57461476,2.12354697 3.94784588,2.330765 3.43096107,2.74461733 C2.91407626,3.15905338 2.65563385,3.65987892 2.65563385,4.24767766 L2.65563385,7.43358183 Z M5.3112677,11.101049 C3.84532835,11.101049 2.33641757,10.9352746 1.29957856,10.1069862 C0.262125671,9.27869782 0,8.60859559 0,7.43358183 L0,4.24767766 C0,3.07208019 0.518726445,2.07042911 1.55617934,1.24214072 C2.59363223,0.413852337 3.84532835,0 5.3112677,0 L9.55991353,0 C11.0258529,0 12.2769351,0.413852337 13.314388,1.24214072 C14.3518409,2.07042911 14.8705674,3.07208019 14.8705674,4.24767766 L14.8705674,11.101049 C14.8705674,12.2760628 14.656938,13.8579243 13.6194851,14.6862127 C12.5820322,15.5145011 11.3303361,15.9289371 9.86501062,15.9289371 L7.47518571,15.9289371 C6.94356784,15.9289371 6.37327569,15.6633478 6.37327569,15.1321692 L6.37327569,14.6015744 C6.37327569,14.0703958 6.94356784,13.8053902 7.47518571,13.8053902 L9.86501062,13.8053902 C10.6010497,13.8053902 11.2278186,13.5981721 11.7447034,13.1837361 C12.2615882,12.7698838 12.2149335,11.6888478 12.2149335,11.101049 L5.3112677,11.101049 Z" id="Fill-19" fill="#FFFFFF" mask="url(#mask-3)"></path>
                </g>
            </g>
        </g>
    </g>
</svg>