<?xml version="1.0" encoding="UTF-8"?>
<svg width="326px" height="107px" viewBox="0 0 326 107" version="1.1" xmlns="http://www.w3.org/2000/svg" xmlns:xlink="http://www.w3.org/1999/xlink">
    <title>编组</title>
    <defs>
        <polygon id="path-1" points="0 106.135 325.037 106.135 325.037 0 0 0"></polygon>
    </defs>
    <g id="启动图标" stroke="none" stroke-width="1" fill="none" fill-rule="evenodd">
        <g id="编组" transform="translate(0.000000, -0.000000)">
            <path d="M134.7633,92.179 L131.0563,78.208 L132.9523,78.208 L135.0773,87.367 C135.3063,88.325 135.5023,89.279 135.6683,90.226 C136.0243,88.733 136.2343,87.871 136.2973,87.643 L138.9553,78.208 L141.1863,78.208 L143.1873,85.28 C143.6893,87.033 144.0513,88.682 144.2733,90.226 C144.4513,89.342 144.6833,88.329 144.9693,87.186 L147.1603,78.208 L149.0193,78.208 L145.1883,92.179 L143.4063,92.179 L140.4613,81.534 C140.2133,80.645 140.0683,80.099 140.0233,79.896 C139.8773,80.537 139.7413,81.083 139.6143,81.534 L136.6503,92.179 L134.7633,92.179 Z" id="Fill-1" fill="#FFFFFF"></path>
            <path d="M154.4684,86.4426 L159.2044,86.4426 L157.7464,82.5736 C157.3024,81.3976 156.9714,80.4316 156.7554,79.6756 C156.5774,80.5716 156.3264,81.4616 156.0024,82.3436 L154.4684,86.4426 Z M150.4374,92.1786 L155.8024,78.2086 L157.7944,78.2086 L163.5124,92.1786 L161.4054,92.1786 L159.7774,87.9476 L153.9354,87.9476 L152.4014,92.1786 L150.4374,92.1786 Z" id="Fill-3" fill="#FFFFFF"></path>
            <polygon id="Fill-5" fill="#FFFFFF" points="169.0465 92.179 169.0465 79.858 164.4435 79.858 164.4435 78.208 175.5175 78.208 175.5175 79.858 170.8965 79.858 170.8965 92.179"></polygon>
            <polygon id="Fill-7" fill="#FFFFFF" points="179.4039 92.179 179.4039 78.208 189.5049 78.208 189.5049 79.858 181.2529 79.858 181.2529 84.136 188.9809 84.136 188.9809 85.775 181.2529 85.775 181.2529 90.531 189.8289 90.531 189.8289 92.179"></polygon>
            <path d="M196.2116,84.3743 L200.1866,84.3743 C201.0306,84.3743 201.6906,84.2873 202.1676,84.1123 C202.6446,83.9373 203.0066,83.6583 203.2546,83.2733 C203.5026,82.8893 203.6256,82.4723 203.6256,82.0203 C203.6256,81.3593 203.3866,80.8163 202.9066,80.3913 C202.4266,79.9653 201.6696,79.7523 200.6336,79.7523 L196.2116,79.7523 L196.2116,84.3743 Z M194.3626,92.1793 L194.3626,78.2083 L200.5576,78.2083 C201.8026,78.2083 202.7496,78.3343 203.3976,78.5853 C204.0456,78.8363 204.5636,79.2793 204.9506,79.9143 C205.3386,80.5503 205.5316,81.2523 205.5316,82.0203 C205.5316,83.0123 205.2106,83.8473 204.5686,84.5263 C203.9276,85.2063 202.9366,85.6393 201.5966,85.8223 C202.0856,86.0583 202.4566,86.2893 202.7116,86.5193 C203.2506,87.0143 203.7626,87.6333 204.2456,88.3763 L206.6756,92.1793 L204.3506,92.1793 L202.5016,89.2723 C201.9616,88.4343 201.5166,87.7923 201.1676,87.3483 C200.8176,86.9023 200.5056,86.5913 200.2296,86.4133 C199.9526,86.2353 199.6716,86.1113 199.3856,86.0423 C199.1756,85.9973 198.8326,85.9753 198.3566,85.9753 L196.2116,85.9753 L196.2116,92.1793 L194.3626,92.1793 Z" id="Fill-9" fill="#FFFFFF"></path>
            <path d="M227.7223,87.2805 L229.5713,87.7475 C229.1833,89.2655 228.4863,90.4245 227.4793,91.2205 C226.4723,92.0185 225.2423,92.4175 223.7863,92.4175 C222.2813,92.4175 221.0563,92.1105 220.1133,91.4975 C219.1693,90.8845 218.4513,89.9965 217.9593,88.8345 C217.4673,87.6715 217.2213,86.4235 217.2213,85.0895 C217.2213,83.6345 217.4983,82.3655 218.0543,81.2815 C218.6113,80.1985 219.4023,79.3765 220.4273,78.8135 C221.4533,78.2515 222.5823,77.9695 223.8153,77.9695 C225.2123,77.9695 226.3883,78.3265 227.3413,79.0375 C228.2943,79.7495 228.9573,80.7505 229.3323,82.0395 L227.5133,82.4685 C227.1893,81.4525 226.7183,80.7125 226.1023,80.2485 C225.4863,79.7845 224.7113,79.5515 223.7773,79.5515 C222.7033,79.5515 221.8063,79.8095 221.0853,80.3245 C220.3643,80.8395 219.8573,81.5295 219.5653,82.3965 C219.2733,83.2635 219.1263,84.1585 219.1263,85.0795 C219.1263,86.2675 219.2993,87.3045 219.6463,88.1905 C219.9933,89.0775 220.5313,89.7395 221.2613,90.1775 C221.9923,90.6165 222.7833,90.8355 223.6343,90.8355 C224.6693,90.8355 225.5463,90.5365 226.2643,89.9395 C226.9823,89.3425 227.4683,88.4565 227.7223,87.2805" id="Fill-11" fill="#FFFFFF"></path>
            <path d="M235.1442,85.4036 C235.1442,87.0876 235.5972,88.4136 236.5022,89.3826 C237.4082,90.3506 238.5422,90.8356 239.9092,90.8356 C241.3002,90.8356 242.4452,90.3456 243.3442,89.3676 C244.2432,88.3896 244.6932,87.0016 244.6932,85.2036 C244.6932,84.0656 244.5002,83.0736 244.1162,82.2246 C243.7322,81.3776 243.1692,80.7196 242.4292,80.2526 C241.6892,79.7856 240.8592,79.5516 239.9372,79.5516 C238.6282,79.5516 237.5022,80.0026 236.5592,80.9006 C235.6162,81.7996 235.1442,83.3006 235.1442,85.4036 M233.2382,85.3756 C233.2382,83.0556 233.8612,81.2406 235.1062,79.9286 C236.3512,78.6166 237.9582,77.9616 239.9282,77.9616 C241.2172,77.9616 242.3802,78.2686 243.4152,78.8846 C244.4512,79.5016 245.2412,80.3606 245.7842,81.4636 C246.3272,82.5656 246.5982,83.8156 246.5982,85.2136 C246.5982,86.6296 246.3132,87.8966 245.7412,89.0146 C245.1692,90.1326 244.3592,90.9796 243.3112,91.5546 C242.2622,92.1306 241.1312,92.4176 239.9182,92.4176 C238.6032,92.4176 237.4282,92.0996 236.3922,91.4646 C235.3572,90.8296 234.5722,89.9626 234.0392,88.8626 C233.5052,87.7636 233.2382,86.6006 233.2382,85.3756" id="Fill-13" fill="#FFFFFF"></path>
            <path d="M250.8756,92.179 L250.8756,78.208 L253.6576,78.208 L256.9656,88.1 C257.2706,89.022 257.4916,89.711 257.6326,90.168 C257.7906,89.66 258.0386,88.913 258.3756,87.929 L261.7206,78.208 L264.2076,78.208 L264.2076,92.179 L262.4256,92.179 L262.4256,80.487 L258.3656,92.179 L256.6976,92.179 L252.6576,80.286 L252.6576,92.179 L250.8756,92.179 Z" id="Fill-15" fill="#FFFFFF"></path>
            <path d="M270.9909,84.8509 L274.6019,84.8509 C275.7969,84.8509 276.6449,84.6279 277.1469,84.1839 C277.6479,83.7399 277.8989,83.1139 277.8989,82.3059 C277.8989,81.7219 277.7519,81.2219 277.4569,80.8049 C277.1609,80.3889 276.7719,80.1149 276.2889,79.9809 C275.9769,79.8989 275.4029,79.8579 274.5639,79.8579 L270.9909,79.8579 L270.9909,84.8509 Z M269.1419,92.1789 L269.1419,78.2079 L274.4119,78.2079 C275.3399,78.2079 276.0479,78.2529 276.5369,78.3419 C277.2229,78.4559 277.7979,78.6739 278.2619,78.9949 C278.7249,79.3159 279.0979,79.7649 279.3819,80.3429 C279.6639,80.9209 279.8049,81.5569 279.8049,82.2489 C279.8049,83.4369 279.4279,84.4429 278.6719,85.2649 C277.9159,86.0879 276.5499,86.4989 274.5739,86.4989 L270.9909,86.4989 L270.9909,92.1789 L269.1419,92.1789 Z" id="Fill-17" fill="#FFFFFF"></path>
            <path d="M285.1598,86.4426 L289.8958,86.4426 L288.4378,82.5736 C287.9928,81.3976 287.6628,80.4316 287.4468,79.6756 C287.2688,80.5716 287.0178,81.4616 286.6938,82.3436 L285.1598,86.4426 Z M281.1288,92.1786 L286.4938,78.2086 L288.4848,78.2086 L294.2028,92.1786 L292.0968,92.1786 L290.4678,87.9476 L284.6258,87.9476 L283.0918,92.1786 L281.1288,92.1786 Z" id="Fill-19" fill="#FFFFFF"></path>
            <polygon id="Fill-21" fill="#FFFFFF" points="297.6129 92.179 297.6129 78.208 299.5089 78.208 306.8469 89.177 306.8469 78.208 308.6199 78.208 308.6199 92.179 306.7229 92.179 299.3849 81.2 299.3849 92.179"></polygon>
            <path d="M317.6139,92.179 L317.6139,86.261 L312.2289,78.208 L314.4779,78.208 L317.2319,82.421 C317.7409,83.208 318.2149,83.996 318.6519,84.784 C319.0719,84.054 319.5799,83.231 320.1769,82.316 L322.8839,78.208 L325.0369,78.208 L319.4629,86.261 L319.4629,92.179 L317.6139,92.179 Z" id="Fill-23" fill="#FFFFFF"></path>
            <path d="M27.4664,72.801 C27.4644,72.803 27.4614,72.805 27.4604,72.807 C27.4464,72.821 27.4344,72.834 27.4214,72.848 C27.4194,72.851 27.4184,72.852 27.4164,72.854 L27.4194,72.857 C27.2884,73.01 27.2064,73.207 27.2064,73.425 C27.2064,73.91 27.6004,74.305 28.0854,74.305 C28.2964,74.305 28.4864,74.228 28.6374,74.106 L28.6384,74.106 C38.2294,67.168 44.9484,60.35 52.5064,53.062 C60.0644,60.35 66.7824,67.168 76.3744,74.106 L76.3754,74.106 C76.5264,74.228 76.7164,74.305 76.9264,74.305 C77.4124,74.305 77.8064,73.91 77.8064,73.425 C77.8064,73.207 77.7244,73.01 77.5934,72.857 L77.5954,72.854 C77.5934,72.852 77.5934,72.851 77.5914,72.848 C77.5774,72.834 77.5654,72.821 77.5524,72.807 C77.5494,72.805 77.5484,72.803 77.5464,72.801 C67.5644,62.375 59.8384,51.405 52.5064,39.155 C45.1744,51.405 37.4474,62.375 27.4664,72.801 L27.4664,72.801 Z M74.6974,64.322 C76.6164,66.895 79.2584,67.146 81.7144,66.55 C85.8394,65.547 97.4404,61.976 101.8874,60.61 C102.9514,60.282 102.9534,59.328 102.4394,58.466 L100.1104,54.626 C91.4614,57.568 83.1384,61.45 74.6974,64.322 L74.6974,64.322 Z M69.1794,57.389 C69.9344,58.418 71.1814,59.974 72.3754,61.521 C83.0244,56.745 91.6684,52.64 100.5344,47.958 C101.7544,47.316 102.0744,45.957 101.2374,44.816 L97.3534,39.492 C88.2484,45.814 79.8994,51.333 69.1794,57.389 L69.1794,57.389 Z M62.7494,48.266 C63.9194,50.067 65.2884,51.972 67.1434,54.626 C72.2314,51.145 76.5724,48.131 80.9324,44.839 C87.3634,39.982 90.0494,37.71 95.8244,32.882 C96.3824,32.369 97.0414,30.574 96.2894,29.713 C93.2044,26.181 90.9194,23.603 87.9834,20.614 C79.9764,30.714 72.4294,39.249 62.7494,48.266 L62.7494,48.266 Z M68.6854,2.684 C65.1334,13.269 61.7284,22.45 55.5684,33.863 C55.2904,34.393 54.8344,34.9 55.0504,35.573 C56.9354,38.853 58.3594,41.328 60.3644,44.558 C63.4374,40.89 66.9954,37.029 69.5804,33.36 C74.3144,27.063 78.5254,21.513 82.9504,13.934 C83.3834,13.278 83.5564,11.546 82.5664,10.644 C77.3344,5.926 74.4224,3.613 69.5324,0 C69.2734,0.981 68.8784,2.121 68.6854,2.684 L68.6854,2.684 Z M2.7234,58.486 C2.2084,59.349 2.2104,60.302 3.2754,60.63 C7.7224,61.996 19.3224,65.568 23.4474,66.57 C25.9034,67.166 28.5454,66.914 30.4644,64.341 C22.0254,61.471 13.7004,57.588 5.0524,54.647 L2.7234,58.486 Z M3.9244,44.836 C3.0864,45.978 3.4084,47.335 4.6274,47.979 C13.4924,52.659 22.1384,56.765 32.7854,61.541 C33.9814,59.994 35.2284,58.438 35.9844,57.408 C25.2634,51.354 16.9134,45.834 7.8094,39.513 L3.9244,44.836 Z M8.8724,29.734 C8.1204,30.594 8.7794,32.39 9.3374,32.902 C15.1134,37.73 17.7984,40.001 24.2304,44.859 C28.5894,48.151 32.9314,51.164 38.0194,54.647 C39.8734,51.992 41.2424,50.086 42.4124,48.286 C32.7334,39.269 25.1864,30.735 17.1794,20.635 C14.2424,23.623 11.9574,26.201 8.8724,29.734 L8.8724,29.734 Z M22.5964,10.663 C27.8274,5.946 30.7394,3.633 35.6294,0.02 C35.8894,1 36.2834,2.142 36.4774,2.704 C40.0294,13.289 43.4344,22.47 49.5944,33.884 C49.8714,34.413 50.3274,34.92 50.1124,35.594 C48.2274,38.873 46.8034,41.349 44.7974,44.578 C41.7244,40.909 38.1664,37.049 35.5814,33.379 C30.8484,27.082 26.6374,21.533 22.2114,13.954 C21.7794,13.298 21.6064,11.567 22.5964,10.663 L22.5964,10.663 Z" id="Fill-25" fill="#FFFFFF"></path>
            <mask id="mask-2" fill="white">
                <use xlink:href="#path-1"></use>
            </mask>
            <g id="Clip-28"></g>
            <path d="M9.26,92.05 L13.259,92.05 L13.259,85.894 L9.26,85.894 L9.26,92.05 Z M2.398,92.05 L6.415,92.05 L6.415,85.894 L2.398,85.894 L2.398,92.05 Z M9.26,83.054 L9.26,84.158 L15.657,84.158 L15.657,85.536 L15.657,85.823 L15.657,93.785 L9.26,93.785 L9.26,95.958 L6.415,95.958 L6.415,93.785 L0,93.785 L0,93.624 L0,92.121 L0,85.823 L0,85.536 L0,84.158 L6.415,84.158 L6.415,83.054 L9.26,83.054 Z" id="Fill-27" fill="#FFFFFF" mask="url(#mask-2)"></path>
            <path d="M24.4254,91.7991 L24.4254,90.2781 L21.2914,90.2781 L21.2914,88.5061 L24.4254,88.5061 L24.4254,87.2001 L21.2914,87.2001 L21.2914,85.4301 L30.0704,85.4301 L30.0704,87.2001 L27.0374,87.2001 L27.0374,88.5061 L30.0704,88.5061 L30.0704,90.2781 L27.0374,90.2781 L27.0374,91.7991 L27.8334,91.7991 L27.5824,90.7081 L29.9944,90.7081 L30.6384,93.5701 L21.2914,93.5701 L21.2914,91.7991 L24.4254,91.7991 Z M20.3634,94.1971 L31.0824,94.1971 L31.0824,84.8201 L20.3634,84.8201 L20.3634,94.1971 Z M17.8774,95.9581 L33.5694,95.9581 L33.5694,83.0541 L17.8774,83.0541 L17.8774,95.9581 Z" id="Fill-29" fill="#FFFFFF" mask="url(#mask-2)"></path>
            <path d="M48.9303,84.0872 L51.4813,84.0872 L51.4813,85.8402 L48.9843,85.8402 L48.9843,87.4692 L51.4813,87.4692 L51.4813,89.2232 L48.9843,89.2232 L48.9843,90.8332 L51.4813,90.8332 L51.4813,92.5872 L48.9843,92.5872 L48.9843,94.2152 L51.4813,94.2152 L51.4813,95.9582 L44.3023,95.9582 L44.3023,94.2152 L46.8913,94.2152 L46.8913,92.5872 L44.3023,92.5872 L44.3023,90.8332 L46.8913,90.8332 L46.8913,89.2232 L44.3023,89.2232 L44.3023,87.4692 L46.8913,87.4692 L46.8913,85.8402 L44.3023,85.8402 L44.7163,84.6652 L44.7163,95.9582 L42.8023,95.9582 L42.8023,86.7652 L42.2653,86.7652 L43.5353,83.0542 L45.3973,83.0542 L45.0993,84.0872 L46.7303,84.0872 L46.7303,83.0542 L48.9303,83.0542 L48.9303,84.0872 Z M42.3993,91.1672 L42.3993,95.9582 L41.2823,95.9582 L40.9593,95.9582 L39.8673,95.9582 L38.5973,95.9582 L38.0963,95.9582 L39.4473,86.5002 L41.2013,86.5002 L40.0653,94.4652 L40.8873,94.4652 L40.8873,91.1672 L42.3993,91.1672 Z M39.2373,85.1722 L43.6733,85.1722 L43.6733,86.7652 L39.0223,86.7652 L37.7393,95.9582 L35.7703,95.9582 L37.0533,86.7652 L35.6583,86.7652 L35.6583,85.1722 L37.2683,85.1722 L37.5053,83.0542 L39.4743,83.0542 L39.2373,85.1722 Z" id="Fill-30" fill="#FFFFFF" mask="url(#mask-2)"></path>
            <path d="M65.9928,89.6165 L57.0458,89.6165 L57.0458,90.8335 C57.7978,91.1425 58.5398,91.4345 59.2728,91.7095 C60.0078,91.9845 60.7498,92.2415 61.5018,92.4795 C62.2528,92.2415 63.0018,91.9845 63.7468,91.7095 C64.4918,91.4345 65.2408,91.1425 65.9928,90.8335 L65.9928,89.6165 Z M65.9928,87.8455 L65.9928,86.7185 L66.9588,86.7185 L66.9588,85.8225 L56.0608,85.8225 L56.0608,86.7185 L57.0458,86.7185 L57.0458,87.8455 L65.9928,87.8455 Z M68.4618,87.3435 L68.4618,87.8455 L69.4458,87.8455 L69.4458,89.6165 L68.4618,89.6165 L68.4618,89.7595 L68.4618,91.7995 C67.8888,92.1095 67.3168,92.3985 66.7438,92.6675 C66.1718,92.9345 65.5878,93.1895 64.9908,93.4275 C65.7298,93.5955 66.4698,93.7375 67.2098,93.8565 C67.9488,93.9765 68.6948,94.0665 69.4458,94.1255 L69.4458,95.9585 C66.6788,95.7555 64.0358,95.2955 61.5188,94.5905 C60.2428,94.9485 58.9448,95.2405 57.6278,95.4675 C56.3088,95.6945 54.9638,95.8625 53.5918,95.9585 L53.5918,94.1255 C54.3438,94.0665 55.0858,93.9765 55.8198,93.8565 C56.5538,93.7375 57.2958,93.5955 58.0478,93.4275 C57.4388,93.1895 56.8478,92.9345 56.2758,92.6675 C55.7038,92.3985 55.1318,92.1095 54.5578,91.7995 L54.5578,89.6165 L53.5918,89.6165 L53.5918,87.8455 L54.5578,87.8455 L54.5578,87.3435 L53.5918,87.3435 L53.5918,84.0515 L60.2128,84.0515 L59.7648,83.0545 L62.4848,83.0545 L62.9148,84.0515 L69.4458,84.0515 L69.4458,87.3435 L68.4618,87.3435 Z" id="Fill-31" fill="#FFFFFF" mask="url(#mask-2)"></path>
            <path d="M81.6403,83.9251 L87.2683,83.9251 L87.2683,85.2151 L81.6583,85.2151 L81.6583,85.8401 L87.2683,85.8401 L87.2683,87.1111 L81.6583,87.1111 L81.6583,87.7381 L87.2683,87.7381 L87.2683,89.0081 L81.6583,89.0081 L81.6583,89.6341 L87.2683,89.6341 L87.2683,90.9041 L74.6603,90.9041 L74.6603,89.6341 L79.1713,89.6341 L79.1713,89.0081 L74.6603,89.0081 L74.6603,87.7381 L79.1713,87.7381 L79.1713,87.1111 L74.6603,87.1111 L74.6603,85.8401 L79.1713,85.8401 L79.1713,85.2151 L74.6603,85.2151 L74.6603,83.9251 L79.1533,83.9251 L78.9033,83.0541 L81.3713,83.0541 L81.6403,83.9251 Z M81.5453,91.9061 L87.2683,91.9061 L87.2683,93.4631 L84.5573,93.4631 L87.5743,95.9581 L84.4783,95.9581 L81.5503,93.4631 L81.5453,93.4631 L81.5453,95.9581 L79.0583,95.9581 L79.0583,93.4631 L78.4183,93.4631 L75.0783,95.9581 L71.5573,95.9581 L75.0043,93.4631 L71.5573,93.4631 L71.5573,91.9061 L79.0583,91.9061 L79.0583,90.7491 L81.5453,90.7491 L81.5453,91.9061 Z M76.6753,83.0541 L74.9753,84.9101 L75.4053,84.9101 L75.4053,92.2361 L72.9353,92.2361 L72.9353,85.3581 L71.5573,85.3581 L73.6693,83.0541 L76.6753,83.0541 Z" id="Fill-32" fill="#FFFFFF" mask="url(#mask-2)"></path>
            <path d="M100.7243,87.8801 L100.7243,95.9581 L96.4733,95.9581 L97.2423,94.2711 L98.5603,94.2711 L98.5603,87.8801 L97.2883,87.8801 L94.1123,94.5071 L91.8933,94.5071 L95.0703,87.8801 L91.4293,87.8801 L91.4293,86.2161 L98.5603,86.2161 L98.5603,84.6871 L100.7243,84.6871 L100.7243,86.2161 L103.5213,86.2161 L103.5213,87.8801 L100.7243,87.8801 Z M91.7423,94.1971 L102.8543,94.1971 L102.8543,84.8201 L91.7423,84.8201 L91.7423,94.1971 Z M89.4523,95.9581 L105.1633,95.9581 L105.1633,83.0541 L89.4523,83.0541 L89.4523,95.9581 Z" id="Fill-33" fill="#FFFFFF" mask="url(#mask-2)"></path>
            <path d="M4.2995,104.0335 L5.0535,104.2245 C4.8955,104.8455 4.6115,105.3195 4.1995,105.6455 C3.7885,105.9715 3.2865,106.1355 2.6935,106.1355 C2.0785,106.1355 1.5785,106.0095 1.1945,105.7595 C0.8095,105.5085 0.5165,105.1445 0.3155,104.6695 C0.1135,104.1945 0.0135,103.6825 0.0135,103.1375 C0.0135,102.5435 0.1265,102.0235 0.3545,101.5815 C0.5805,101.1375 0.9035,100.8015 1.3215,100.5715 C1.7405,100.3425 2.2015,100.2265 2.7045,100.2265 C3.2755,100.2265 3.7545,100.3725 4.1435,100.6635 C4.5315,100.9545 4.8035,101.3635 4.9555,101.8905 L4.2135,102.0665 C4.0815,101.6505 3.8895,101.3475 3.6385,101.1575 C3.3865,100.9685 3.0705,100.8735 2.6895,100.8735 C2.2505,100.8735 1.8845,100.9785 1.5905,101.1895 C1.2965,101.3995 1.0895,101.6815 0.9705,102.0375 C0.8505,102.3915 0.7915,102.7575 0.7915,103.1345 C0.7915,103.6205 0.8615,104.0435 1.0035,104.4065 C1.1445,104.7685 1.3635,105.0395 1.6625,105.2195 C1.9605,105.3975 2.2825,105.4885 2.6305,105.4885 C3.0535,105.4885 3.4105,105.3655 3.7035,105.1215 C3.9965,104.8775 4.1955,104.5145 4.2995,104.0335" id="Fill-34" fill="#FFFFFF" mask="url(#mask-2)"></path>
            <polygon id="Fill-35" fill="#FFFFFF" mask="url(#mask-2)" points="6.6276 106.0374 6.6276 100.3234 7.3816 100.3234 7.3816 102.6704 10.3446 102.6704 10.3446 100.3234 11.0996 100.3234 11.0996 106.0374 10.3446 106.0374 10.3446 103.3444 7.3816 103.3444 7.3816 106.0374"></polygon>
            <polygon id="Fill-36" fill="#FFFFFF" mask="url(#mask-2)" points="13.105 106.037 13.859 106.037 13.859 100.323 13.105 100.323"></polygon>
            <polygon id="Fill-37" fill="#FFFFFF" mask="url(#mask-2)" points="15.8024 106.0374 15.8024 100.3234 16.5764 100.3234 19.5714 104.8094 19.5714 100.3234 20.2944 100.3234 20.2944 106.0374 19.5204 106.0374 16.5264 101.5484 16.5264 106.0374"></polygon>
            <path d="M23.2018,103.6917 L25.1348,103.6917 L24.5398,102.1097 C24.3578,101.6287 24.2228,101.2337 24.1358,100.9237 C24.0618,101.2907 23.9608,101.6547 23.8278,102.0147 L23.2018,103.6917 Z M21.5568,106.0377 L23.7458,100.3237 L24.5588,100.3237 L26.8918,106.0377 L26.0328,106.0377 L25.3678,104.3067 L22.9838,104.3067 L22.3578,106.0377 L21.5568,106.0377 Z" id="Fill-38" fill="#FFFFFF" mask="url(#mask-2)"></path>
            <path d="M29.9313,106.0374 L32.1363,103.0594 L30.1923,100.3234 L31.0903,100.3234 L32.1243,101.7894 C32.3393,102.0944 32.4933,102.3274 32.5833,102.4904 C32.7103,102.2824 32.8613,102.0664 33.0353,101.8404 L34.1823,100.3234 L35.0023,100.3234 L32.9993,103.0164 L35.1583,106.0374 L34.2243,106.0374 L32.7893,103.9994 C32.7093,103.8834 32.6263,103.7544 32.5403,103.6174 C32.4133,103.8254 32.3233,103.9684 32.2693,104.0464 L30.8373,106.0374 L29.9313,106.0374 Z" id="Fill-39" fill="#FFFFFF" mask="url(#mask-2)"></path>
            <polygon id="Fill-40" fill="#FFFFFF" mask="url(#mask-2)" points="36.573 106.037 37.327 106.037 37.327 100.323 36.573 100.323"></polygon>
            <path d="M39.8258,103.2659 C39.8258,103.9549 40.0118,104.4969 40.3808,104.8939 C40.7498,105.2889 41.2138,105.4879 41.7708,105.4879 C42.3388,105.4879 42.8048,105.2879 43.1728,104.8869 C43.5388,104.4879 43.7218,103.9199 43.7218,103.1849 C43.7218,102.7199 43.6438,102.3139 43.4878,101.9669 C43.3308,101.6199 43.1008,101.3509 42.7998,101.1609 C42.4968,100.9689 42.1578,100.8729 41.7828,100.8729 C41.2488,100.8729 40.7888,101.0569 40.4038,101.4249 C40.0188,101.7929 39.8258,102.4069 39.8258,103.2659 M39.0488,103.2549 C39.0488,102.3059 39.3028,101.5639 39.8108,101.0279 C40.3188,100.4919 40.9748,100.2229 41.7778,100.2229 C42.3048,100.2229 42.7788,100.3489 43.2018,100.6009 C43.6248,100.8529 43.9468,101.2039 44.1678,101.6549 C44.3898,102.1059 44.5008,102.6169 44.5008,103.1889 C44.5008,103.7679 44.3838,104.2869 44.1498,104.7439 C43.9178,105.2009 43.5868,105.5469 43.1588,105.7819 C42.7308,106.0169 42.2688,106.1349 41.7738,106.1349 C41.2378,106.1349 40.7588,106.0049 40.3358,105.7449 C39.9128,105.4849 39.5938,105.1299 39.3758,104.6809 C39.1578,104.2319 39.0488,103.7559 39.0488,103.2549" id="Fill-41" fill="#FFFFFF" mask="url(#mask-2)"></path>
            <polygon id="Fill-42" fill="#FFFFFF" mask="url(#mask-2)" points="46.0856 106.0374 46.0856 100.3234 46.8596 100.3234 49.8546 104.8094 49.8546 100.3234 50.5776 100.3234 50.5776 106.0374 49.8036 106.0374 46.8096 101.5484 46.8096 106.0374"></polygon>
            <path d="M55.1344,103.7962 L55.1344,103.1262 L57.5494,103.1222 L57.5494,105.2422 C57.1784,105.5382 56.7954,105.7622 56.4024,105.9112 C56.0074,106.0602 55.6034,106.1352 55.1884,106.1352 C54.6284,106.1352 54.1194,106.0152 53.6624,105.7742 C53.2044,105.5332 52.8594,105.1872 52.6254,104.7322 C52.3924,104.2762 52.2764,103.7692 52.2764,103.2082 C52.2764,102.6512 52.3924,102.1332 52.6244,101.6502 C52.8564,101.1692 53.1904,100.8122 53.6254,100.5772 C54.0614,100.3442 54.5624,100.2272 55.1304,100.2272 C55.5424,100.2272 55.9154,100.2932 56.2474,100.4272 C56.5814,100.5612 56.8424,100.7472 57.0314,100.9862 C57.2214,101.2262 57.3644,101.5372 57.4634,101.9222 L56.7824,102.1092 C56.6974,101.8172 56.5914,101.5892 56.4644,101.4232 C56.3374,101.2572 56.1554,101.1232 55.9194,101.0242 C55.6844,100.9242 55.4224,100.8732 55.1344,100.8732 C54.7894,100.8732 54.4904,100.9262 54.2394,101.0312 C53.9884,101.1372 53.7854,101.2752 53.6314,101.4462 C53.4774,101.6172 53.3574,101.8072 53.2724,102.0112 C53.1254,102.3642 53.0544,102.7482 53.0544,103.1602 C53.0544,103.6712 53.1414,104.0962 53.3164,104.4402 C53.4914,104.7822 53.7454,105.0372 54.0804,105.2032 C54.4144,105.3692 54.7704,105.4522 55.1464,105.4522 C55.4724,105.4522 55.7914,105.3902 56.1024,105.2642 C56.4134,105.1382 56.6494,105.0032 56.8104,104.8602 L56.8104,103.7962 L55.1344,103.7962 Z" id="Fill-43" fill="#FFFFFF" mask="url(#mask-2)"></path>
            <path d="M60.3014,103.6917 L62.2344,103.6917 L61.6394,102.1097 C61.4574,101.6287 61.3224,101.2337 61.2354,100.9237 C61.1614,101.2907 61.0604,101.6547 60.9274,102.0147 L60.3014,103.6917 Z M58.6564,106.0377 L60.8454,100.3237 L61.6574,100.3237 L63.9914,106.0377 L63.1324,106.0377 L62.4674,104.3067 L60.0834,104.3067 L59.4574,106.0377 L58.6564,106.0377 Z" id="Fill-44" fill="#FFFFFF" mask="url(#mask-2)"></path>
            <polygon id="Fill-45" fill="#FFFFFF" mask="url(#mask-2)" points="65.2077 106.0374 65.2077 100.3234 65.9817 100.3234 68.9767 104.8094 68.9767 100.3234 69.6987 100.3234 69.6987 106.0374 68.9257 106.0374 65.9317 101.5484 65.9317 106.0374"></polygon>
            <path d="M77.0895,103.7962 L77.0895,103.1262 L79.5045,103.1222 L79.5045,105.2422 C79.1345,105.5382 78.7515,105.7622 78.3585,105.9112 C77.9635,106.0602 77.5595,106.1352 77.1445,106.1352 C76.5835,106.1352 76.0755,106.0152 75.6175,105.7742 C75.1595,105.5332 74.8155,105.1872 74.5815,104.7322 C74.3485,104.2762 74.2325,103.7692 74.2325,103.2082 C74.2325,102.6512 74.3475,102.1332 74.5795,101.6502 C74.8125,101.1692 75.1455,100.8122 75.5805,100.5772 C76.0165,100.3442 76.5185,100.2272 77.0855,100.2272 C77.4975,100.2272 77.8705,100.2932 78.2045,100.4272 C78.5375,100.5612 78.7985,100.7472 78.9875,100.9862 C79.1765,101.2262 79.3205,101.5372 79.4195,101.9222 L78.7385,102.1092 C78.6525,101.8172 78.5465,101.5892 78.4195,101.4232 C78.2925,101.2572 78.1105,101.1232 77.8755,101.0242 C77.6395,100.9242 77.3775,100.8732 77.0895,100.8732 C76.7445,100.8732 76.4465,100.9262 76.1955,101.0312 C75.9435,101.1372 75.7405,101.2752 75.5865,101.4462 C75.4335,101.6172 75.3135,101.8072 75.2275,102.0112 C75.0815,102.3642 75.0095,102.7482 75.0095,103.1602 C75.0095,103.6712 75.0975,104.0962 75.2725,104.4402 C75.4465,104.7822 75.7015,105.0372 76.0355,105.2032 C76.3705,105.3692 76.7255,105.4522 77.1015,105.4522 C77.4285,105.4522 77.7465,105.3902 78.0585,105.2642 C78.3695,105.1382 78.6055,105.0032 78.7655,104.8602 L78.7655,103.7962 L77.0895,103.7962 Z" id="Fill-46" fill="#FFFFFF" mask="url(#mask-2)"></path>
            <path d="M82.0045,102.845 L83.6265,102.845 C83.9715,102.845 84.2395,102.81 84.4355,102.739 C84.6295,102.667 84.7765,102.553 84.8785,102.396 C84.9795,102.239 85.0295,102.068 85.0295,101.883 C85.0295,101.613 84.9325,101.391 84.7355,101.217 C84.5405,101.042 84.2315,100.955 83.8085,100.955 L82.0045,100.955 L82.0045,102.845 Z M81.2495,106.037 L81.2495,100.324 L83.7775,100.324 C84.2855,100.324 84.6725,100.375 84.9365,100.478 C85.2005,100.58 85.4115,100.762 85.5695,101.022 C85.7285,101.282 85.8075,101.569 85.8075,101.883 C85.8075,102.288 85.6765,102.63 85.4145,102.907 C85.1525,103.186 84.7485,103.363 84.2015,103.438 C84.4005,103.534 84.5535,103.629 84.6555,103.722 C84.8765,103.925 85.0855,104.178 85.2825,104.483 L86.2745,106.037 L85.3245,106.037 L84.5705,104.849 C84.3505,104.506 84.1685,104.243 84.0255,104.062 C83.8835,103.879 83.7565,103.752 83.6435,103.679 C83.5305,103.607 83.4155,103.557 83.2995,103.528 C83.2135,103.509 83.0735,103.5 82.8795,103.5 L82.0045,103.5 L82.0045,106.037 L81.2495,106.037 Z" id="Fill-47" fill="#FFFFFF" mask="url(#mask-2)"></path>
            <path d="M88.1588,103.2659 C88.1588,103.9549 88.3448,104.4969 88.7138,104.8939 C89.0828,105.2889 89.5468,105.4879 90.1038,105.4879 C90.6718,105.4879 91.1388,105.2879 91.5058,104.8869 C91.8718,104.4879 92.0548,103.9199 92.0548,103.1849 C92.0548,102.7199 91.9768,102.3139 91.8208,101.9669 C91.6638,101.6199 91.4338,101.3509 91.1328,101.1609 C90.8298,100.9689 90.4908,100.8729 90.1158,100.8729 C89.5818,100.8729 89.1218,101.0569 88.7368,101.4249 C88.3508,101.7929 88.1588,102.4069 88.1588,103.2659 M87.3818,103.2549 C87.3818,102.3059 87.6358,101.5639 88.1428,101.0279 C88.6518,100.4919 89.3078,100.2229 90.1108,100.2229 C90.6378,100.2229 91.1118,100.3489 91.5348,100.6009 C91.9568,100.8529 92.2788,101.2039 92.5008,101.6549 C92.7218,102.1059 92.8338,102.6169 92.8338,103.1889 C92.8338,103.7679 92.7168,104.2869 92.4828,104.7439 C92.2498,105.2009 91.9198,105.5469 91.4918,105.7819 C91.0638,106.0169 90.6028,106.1349 90.1068,106.1349 C89.5708,106.1349 89.0918,106.0049 88.6688,105.7449 C88.2458,105.4849 87.9258,105.1299 87.7078,104.6809 C87.4908,104.2319 87.3818,103.7559 87.3818,103.2549" id="Fill-48" fill="#FFFFFF" mask="url(#mask-2)"></path>
            <path d="M98.1676,100.3235 L98.9226,100.3235 L98.9226,103.6255 C98.9226,104.1995 98.8566,104.6545 98.7286,104.9925 C98.5986,105.3305 98.3646,105.6045 98.0256,105.8165 C97.6876,106.0285 97.2436,106.1355 96.6936,106.1355 C96.1596,106.1355 95.7236,106.0425 95.3836,105.8575 C95.0436,105.6735 94.8016,105.4065 94.6566,105.0575 C94.5116,104.7085 94.4386,104.2305 94.4386,103.6255 L94.4386,100.3235 L95.1926,100.3235 L95.1926,103.6205 C95.1926,104.1175 95.2386,104.4825 95.3306,104.7185 C95.4236,104.9535 95.5816,105.1355 95.8056,105.2615 C96.0286,105.3885 96.3046,105.4525 96.6276,105.4525 C97.1826,105.4525 97.5776,105.3265 97.8136,105.0745 C98.0506,104.8225 98.1676,104.3385 98.1676,103.6205 L98.1676,100.3235 Z" id="Fill-49" fill="#FFFFFF" mask="url(#mask-2)"></path>
            <path d="M101.5544,103.0403 L103.0284,103.0403 C103.5154,103.0403 103.8614,102.9493 104.0664,102.7683 C104.2714,102.5853 104.3734,102.3303 104.3734,102.0003 C104.3734,101.7613 104.3134,101.5573 104.1924,101.3863 C104.0724,101.2163 103.9124,101.1033 103.7164,101.0493 C103.5894,101.0153 103.3544,100.9983 103.0124,100.9983 L101.5544,100.9983 L101.5544,103.0403 Z M100.7994,106.0373 L100.7994,100.3243 L102.9504,100.3243 C103.3284,100.3243 103.6174,100.3423 103.8174,100.3793 C104.0974,100.4263 104.3314,100.5143 104.5214,100.6453 C104.7104,100.7763 104.8634,100.9603 104.9784,101.1973 C105.0934,101.4343 105.1514,101.6933 105.1514,101.9763 C105.1514,102.4633 104.9964,102.8733 104.6884,103.2093 C104.3794,103.5463 103.8234,103.7153 103.0164,103.7153 L101.5544,103.7153 L101.5544,106.0373 L100.7994,106.0373 Z" id="Fill-50" fill="#FFFFFF" mask="url(#mask-2)"></path>
            <path d="M290.832,57.305 L308.107,57.305 L308.107,51.862 L290.832,51.862 L290.832,57.305 Z M284.659,62.236 L313.985,62.236 L313.985,46.93 L284.659,46.93 L284.659,62.236 Z M284.659,44.289 L313.985,44.289 L313.985,39.358 L284.659,39.358 L284.659,44.289 Z M282.717,31.837 L322.499,31.787 L322.499,31.887 L325.037,31.837 L325.037,67.103 L312.306,67.103 L312.306,62.222 L318.864,62.222 L318.864,36.718 L282.717,36.718 L282.717,31.837 Z" id="Fill-51" fill="#FFFFFF" mask="url(#mask-2)"></path>
            <path d="M265.6999,31.5325 L276.8199,52.9215 L269.3009,52.9215 L258.1819,31.5325 L265.6999,31.5325 Z M265.5759,51.9225 L274.3889,67.5635 L235.6019,67.5635 L247.2039,44.1365 L254.5629,44.1365 L246.6689,62.0385 L263.4439,62.0385 L258.1639,51.9225 L265.5759,51.9225 Z M239.6549,52.9215 L232.1359,52.9215 L242.8789,31.5325 L250.3979,31.5325 L239.6549,52.9215 Z" id="Fill-52" fill="#FFFFFF" mask="url(#mask-2)"></path>
            <polygon id="Fill-53" fill="#FFFFFF" mask="url(#mask-2)" points="205.1793 49.8479 196.9353 49.8479 194.9303 52.4759 182.4443 52.4759 182.4443 56.5239 191.7123 56.5239 182.9873 67.5639 191.2313 67.5639 199.9073 56.5239 220.0633 56.5239 220.0633 62.8849 212.9493 62.8849 209.7993 67.5119 226.2383 67.5119 226.2383 52.4759 203.1253 52.4759"></polygon>
            <path d="M211.2643,39.7991 C209.1903,40.6371 206.9903,41.3521 204.6653,41.9451 C202.6753,41.4571 200.7833,40.8711 198.9913,40.1931 C197.2503,39.5311 195.4813,38.7211 192.2893,36.7121 L217.5623,36.7121 C215.4373,37.9341 213.3373,38.9631 211.2643,39.7991 M215.9193,43.8291 C218.0113,42.9221 219.9273,41.8841 221.6693,40.7151 C223.4113,39.5461 224.8973,38.2121 226.1263,36.7121 L226.1263,32.0021 L192.1193,32.0021 L192.6423,31.1111 L186.4703,31.1111 L180.6463,42.3911 L186.8213,42.3911 L187.7053,40.6931 C187.8693,40.8351 188.0513,40.9731 188.2623,41.1091 C189.8373,42.1211 191.5723,43.0271 193.4633,43.8291 C191.9373,43.9921 185.2953,44.5861 182.4443,44.6671 L182.4443,49.8481 C185.6303,49.7091 189.8883,49.4541 193.5893,49.0881 C197.2893,48.7221 200.9833,48.1391 204.6653,47.3351 C208.3833,48.1391 212.0943,48.7221 215.7953,49.0881 C219.4953,49.4541 223.1763,49.7091 226.2383,49.7221 L226.2383,44.5411 C224.4693,44.5351 219.5203,44.3091 215.9193,43.8291" id="Fill-54" fill="#FFFFFF" mask="url(#mask-2)"></path>
            <path d="M173.9567,35.4446 L166.4837,45.0866 L175.3217,67.7296 L166.9147,67.7296 L159.1117,47.7166 L159.1117,43.1876 L165.2097,35.4446 L173.9567,35.4446 Z M143.6657,67.7296 L145.0757,62.9066 L148.9897,62.9066 L148.9897,31.6486 L156.9957,31.6486 L156.9507,67.7296 L143.6657,67.7296 Z M132.1547,37.7826 L146.9567,37.7826 L146.9567,43.5826 L139.8167,67.8906 L132.2947,67.7296 L139.4097,43.7286 L132.1547,43.7286 L132.1547,37.7826 Z" id="Fill-55" fill="#FFFFFF" mask="url(#mask-2)"></path>
        </g>
    </g>
</svg>